<svg width="16" height="16" viewBox="0 0 16 16" fill="none" xmlns="http://www.w3.org/2000/svg">
<path id="Vector" d="M13.3169 0.7107L7.99999 6.02764L2.68302 0.710672C2.44081 0.468462 1.58672 0.272169 0.92895 0.929937C0.271182 1.58771 0.467503 2.44182 0.709684 2.684L6.02668 8.001L0.709712 13.318C0.467502 13.5601 0.27118 14.4142 0.928919 15.072C1.58666 15.7297 2.4408 15.5334 2.68299 15.2913L7.99999 9.97425L13.317 15.2913C13.5591 15.5334 14.4133 15.7298 15.0711 15.072C15.7289 14.4142 15.5325 13.5601 15.2903 13.3179L9.97332 8.00092L15.2903 2.68392C15.5325 2.44176 15.7289 1.58765 15.0711 0.92985C14.4133 0.272054 13.5591 0.468518 13.3169 0.7107Z" fill="#2D5E5E"/>
</svg>
